<mxfile host="app.diagrams.net" agent="Mozilla/5.0 (Windows NT 10.0; Win64; x64) AppleWebKit/537.36 (KHTML, like Gecko) Chrome/137.0.0.0 Safari/537.36 Edg/137.0.0.0" version="26.0.6">
  <diagram name="Page-1" id="iTcKblv_Ajy99_gno5pj">
    <mxGraphModel dx="9022" dy="3164" grid="0" gridSize="10" guides="1" tooltips="1" connect="1" arrows="1" fold="1" page="0" pageScale="1" pageWidth="850" pageHeight="1100" background="#FFFFFF" math="0" shadow="0">
      <root>
        <mxCell id="0" />
        <mxCell id="1" parent="0" />
        <mxCell id="DDEnpmRq-jySMfK6d3gm-47" value="" style="edgeStyle=orthogonalEdgeStyle;rounded=0;orthogonalLoop=1;jettySize=auto;html=1;strokeColor=light-dark(#000000,#FFFFFF);" edge="1" parent="1" source="DDEnpmRq-jySMfK6d3gm-1" target="DDEnpmRq-jySMfK6d3gm-8">
          <mxGeometry relative="1" as="geometry" />
        </mxCell>
        <mxCell id="DDEnpmRq-jySMfK6d3gm-1" value="&lt;font style=&quot;font-size: 16px;&quot;&gt;Autoencoder Model&lt;/font&gt;" style="rounded=0;whiteSpace=wrap;html=1;fillColor=none;" vertex="1" parent="1">
          <mxGeometry x="40" y="760" width="240" height="80" as="geometry" />
        </mxCell>
        <mxCell id="DDEnpmRq-jySMfK6d3gm-52" style="edgeStyle=orthogonalEdgeStyle;rounded=0;orthogonalLoop=1;jettySize=auto;html=1;exitX=0.5;exitY=1;exitDx=0;exitDy=0;entryX=0.5;entryY=0;entryDx=0;entryDy=0;strokeColor=light-dark(#000000,#FFFFFF);" edge="1" parent="1" source="DDEnpmRq-jySMfK6d3gm-2" target="DDEnpmRq-jySMfK6d3gm-22">
          <mxGeometry relative="1" as="geometry" />
        </mxCell>
        <mxCell id="DDEnpmRq-jySMfK6d3gm-2" value="&lt;font style=&quot;font-size: 16px;&quot;&gt;Threshold Model&lt;/font&gt;" style="rounded=0;whiteSpace=wrap;html=1;fillColor=none;" vertex="1" parent="1">
          <mxGeometry x="40" y="1360" width="240" height="80" as="geometry" />
        </mxCell>
        <mxCell id="DDEnpmRq-jySMfK6d3gm-3" value="&lt;h1 style=&quot;margin-top: 0px;&quot;&gt;&lt;b style=&quot;font-family: &amp;quot;Lucida Console&amp;quot;; text-align: center;&quot;&gt;&lt;font&gt;reconstruction_errors&lt;/font&gt;&lt;/b&gt;&lt;/h1&gt;&lt;p style=&quot;&quot;&gt;&lt;font style=&quot;font-size: 16px;&quot;&gt;The autoencoder produces an output with shape (X, Y, Z).&amp;nbsp;&lt;/font&gt;&lt;span style=&quot;font-size: 16px; background-color: transparent; color: light-dark(rgb(0, 0, 0), rgb(255, 255, 255));&quot;&gt;The reconstruction error is derived by first calculating the Mean Squared Error (MSE) for each sub-sample within every sample (first block). Subsequently, for each main sample, a single error value is obtained by averaging the 10 MSEs from its respective sub-samples, following the DAICS methodology (second block).&lt;/span&gt;&lt;/p&gt;" style="text;html=1;whiteSpace=wrap;overflow=hidden;rounded=0;verticalAlign=middle;" vertex="1" parent="1">
          <mxGeometry x="-630" y="980" width="550" height="240" as="geometry" />
        </mxCell>
        <mxCell id="DDEnpmRq-jySMfK6d3gm-5" value="&lt;h1 style=&quot;margin-top: 0px;&quot;&gt;Threshold Model (evaluation mode)&lt;/h1&gt;&lt;p style=&quot;&quot;&gt;&lt;font style=&quot;font-size: 16px;&quot;&gt;The threshold model aims to learn the reconstruction error characteristics of normal data from the autoencoder. The core idea is that when anomalies are encountered, the threshold model, given a reconstruction error, will struggle to produce a similar output. This discrepancy arises because anomalous data is theorized to deviate from the distribution of normal data.&lt;/font&gt;&lt;/p&gt;" style="text;html=1;whiteSpace=wrap;overflow=hidden;rounded=0;verticalAlign=middle;" vertex="1" parent="1">
          <mxGeometry x="400" y="1320" width="550" height="160" as="geometry" />
        </mxCell>
        <mxCell id="DDEnpmRq-jySMfK6d3gm-6" value="&lt;h1 style=&quot;margin-top: 0px;&quot;&gt;Autoencoder Model (evaluation mode)&lt;/h1&gt;&lt;p style=&quot;&quot;&gt;&lt;font style=&quot;font-size: 16px;&quot;&gt;The autoencoder aims to learn the underlying distribution of normal data by&amp;nbsp;&lt;/font&gt;&lt;span style=&quot;font-size: 16px; background-color: transparent; color: light-dark(rgb(0, 0, 0), rgb(255, 255, 255));&quot;&gt;achieving&lt;/span&gt;&lt;span style=&quot;font-size: 16px; background-color: transparent; color: light-dark(rgb(0, 0, 0), rgb(255, 255, 255));&quot;&gt;&amp;nbsp;for the lowest possible reconstruction error. Consequently, when an anomaly occurs, the model, having been trained solely on normal patterns, is expected to produce a substantially higher reconstruction error.&lt;/span&gt;&lt;/p&gt;" style="text;html=1;whiteSpace=wrap;overflow=hidden;rounded=0;verticalAlign=middle;" vertex="1" parent="1">
          <mxGeometry x="400" y="720" width="550" height="160" as="geometry" />
        </mxCell>
        <mxCell id="DDEnpmRq-jySMfK6d3gm-55" style="edgeStyle=orthogonalEdgeStyle;rounded=0;orthogonalLoop=1;jettySize=auto;html=1;exitX=0.5;exitY=1;exitDx=0;exitDy=0;entryX=0.5;entryY=0;entryDx=0;entryDy=0;strokeColor=light-dark(#000000,#FFFFFF);" edge="1" parent="1" source="DDEnpmRq-jySMfK6d3gm-7" target="DDEnpmRq-jySMfK6d3gm-33">
          <mxGeometry relative="1" as="geometry" />
        </mxCell>
        <mxCell id="DDEnpmRq-jySMfK6d3gm-56" value="&lt;font style=&quot;font-size: 16px;&quot;&gt;YES&lt;/font&gt;" style="edgeLabel;html=1;align=center;verticalAlign=middle;resizable=0;points=[];" vertex="1" connectable="0" parent="DDEnpmRq-jySMfK6d3gm-55">
          <mxGeometry x="0.0065" y="-2" relative="1" as="geometry">
            <mxPoint as="offset" />
          </mxGeometry>
        </mxCell>
        <mxCell id="DDEnpmRq-jySMfK6d3gm-57" style="edgeStyle=orthogonalEdgeStyle;rounded=0;orthogonalLoop=1;jettySize=auto;html=1;exitX=0.5;exitY=1;exitDx=0;exitDy=0;entryX=0.5;entryY=0;entryDx=0;entryDy=0;strokeColor=light-dark(#000000,#FFFFFF);" edge="1" parent="1" source="DDEnpmRq-jySMfK6d3gm-7" target="DDEnpmRq-jySMfK6d3gm-32">
          <mxGeometry relative="1" as="geometry" />
        </mxCell>
        <mxCell id="DDEnpmRq-jySMfK6d3gm-59" value="&lt;font style=&quot;font-size: 16px;&quot;&gt;NO&lt;/font&gt;" style="edgeLabel;html=1;align=center;verticalAlign=middle;resizable=0;points=[];" vertex="1" connectable="0" parent="DDEnpmRq-jySMfK6d3gm-57">
          <mxGeometry x="0.0113" relative="1" as="geometry">
            <mxPoint as="offset" />
          </mxGeometry>
        </mxCell>
        <mxCell id="DDEnpmRq-jySMfK6d3gm-7" value="&lt;font face=&quot;Lucida Console&quot; style=&quot;font-size: 16px;&quot;&gt;reconstruction_error&lt;/font&gt;&lt;div&gt;&lt;font face=&quot;Lucida Console&quot; style=&quot;font-size: 16px;&quot;&gt;&amp;gt;&amp;nbsp;&lt;/font&gt;&lt;/div&gt;&lt;div&gt;&lt;font face=&quot;Lucida Console&quot; style=&quot;font-size: 16px;&quot;&gt;max(threshold_outputs)&amp;nbsp;&lt;/font&gt;&lt;/div&gt;&lt;div&gt;&lt;font face=&quot;Lucida Console&quot; style=&quot;font-size: 16px;&quot;&gt;+ t_base&lt;/font&gt;&lt;/div&gt;" style="rhombus;whiteSpace=wrap;html=1;fillColor=none;" vertex="1" parent="1">
          <mxGeometry y="1640" width="320" height="320" as="geometry" />
        </mxCell>
        <mxCell id="DDEnpmRq-jySMfK6d3gm-48" value="" style="edgeStyle=orthogonalEdgeStyle;rounded=0;orthogonalLoop=1;jettySize=auto;html=1;strokeColor=light-dark(#000000,#FFFFFF);" edge="1" parent="1" source="DDEnpmRq-jySMfK6d3gm-8" target="DDEnpmRq-jySMfK6d3gm-19">
          <mxGeometry relative="1" as="geometry" />
        </mxCell>
        <mxCell id="DDEnpmRq-jySMfK6d3gm-8" value="&lt;font style=&quot;font-size: 16px;&quot;&gt;Reconstruction Errors (MSE)&lt;/font&gt;" style="shape=parallelogram;perimeter=parallelogramPerimeter;whiteSpace=wrap;html=1;fixedSize=1;fillColor=none;" vertex="1" parent="1">
          <mxGeometry x="40" y="920" width="240" height="80" as="geometry" />
        </mxCell>
        <mxCell id="DDEnpmRq-jySMfK6d3gm-10" value="&lt;h1 style=&quot;margin-top: 0px;&quot;&gt;&lt;b style=&quot;font-family: &amp;quot;Lucida Console&amp;quot;; text-align: center;&quot;&gt;&lt;font&gt;Inputs&lt;/font&gt;&lt;/b&gt;&lt;/h1&gt;&lt;p style=&quot;&quot;&gt;&lt;font style=&quot;font-size: 16px;&quot;&gt;The autoencoder receives mixed samples (normal + attack).&amp;nbsp;&lt;/font&gt;&lt;span style=&quot;font-size: 16px; background-color: transparent; color: light-dark(rgb(0, 0, 0), rgb(255, 255, 255));&quot;&gt;The shape is (X, Y, Z), where X is the number of samples, Y is the window size (10), and Z is the number of features (51).&lt;/span&gt;&lt;/p&gt;" style="text;html=1;whiteSpace=wrap;overflow=hidden;rounded=0;verticalAlign=middle;" vertex="1" parent="1">
          <mxGeometry x="-38" y="390" width="395" height="129.87" as="geometry" />
        </mxCell>
        <mxCell id="DDEnpmRq-jySMfK6d3gm-46" value="" style="edgeStyle=orthogonalEdgeStyle;rounded=0;orthogonalLoop=1;jettySize=auto;html=1;strokeColor=light-dark(#000000,#FFFFFF);" edge="1" parent="1" source="DDEnpmRq-jySMfK6d3gm-12" target="DDEnpmRq-jySMfK6d3gm-1">
          <mxGeometry relative="1" as="geometry" />
        </mxCell>
        <mxCell id="DDEnpmRq-jySMfK6d3gm-12" value="&lt;font face=&quot;Lucida Console&quot; style=&quot;font-size: 16px;&quot;&gt;&lt;b&gt;Inputs&lt;/b&gt;&lt;/font&gt;" style="text;html=1;align=center;verticalAlign=middle;whiteSpace=wrap;rounded=0;" vertex="1" parent="1">
          <mxGeometry x="40" y="640" width="240" height="40" as="geometry" />
        </mxCell>
        <mxCell id="DDEnpmRq-jySMfK6d3gm-49" value="" style="edgeStyle=orthogonalEdgeStyle;rounded=0;orthogonalLoop=1;jettySize=auto;html=1;strokeColor=light-dark(#000000,#FFFFFF);" edge="1" parent="1" source="DDEnpmRq-jySMfK6d3gm-19" target="DDEnpmRq-jySMfK6d3gm-23">
          <mxGeometry relative="1" as="geometry" />
        </mxCell>
        <mxCell id="DDEnpmRq-jySMfK6d3gm-19" value="&lt;font style=&quot;font-size: 16px;&quot;&gt;Reshape (X,Y,Z) to (X,)&lt;/font&gt;" style="shape=parallelogram;perimeter=parallelogramPerimeter;whiteSpace=wrap;html=1;fixedSize=1;fillColor=none;" vertex="1" parent="1">
          <mxGeometry x="40" y="1080" width="240" height="80" as="geometry" />
        </mxCell>
        <mxCell id="DDEnpmRq-jySMfK6d3gm-54" style="edgeStyle=orthogonalEdgeStyle;rounded=0;orthogonalLoop=1;jettySize=auto;html=1;exitX=0.5;exitY=1;exitDx=0;exitDy=0;strokeColor=light-dark(#000000,#FFFFFF);" edge="1" parent="1" source="DDEnpmRq-jySMfK6d3gm-22">
          <mxGeometry relative="1" as="geometry">
            <mxPoint x="160" y="1640" as="targetPoint" />
          </mxGeometry>
        </mxCell>
        <mxCell id="DDEnpmRq-jySMfK6d3gm-22" value="&lt;font face=&quot;Lucida Console&quot; style=&quot;font-size: 16px;&quot;&gt;&lt;b&gt;threshold_outputs&lt;/b&gt;&lt;/font&gt;" style="text;html=1;align=center;verticalAlign=middle;whiteSpace=wrap;rounded=0;" vertex="1" parent="1">
          <mxGeometry x="40" y="1520" width="240" height="40" as="geometry" />
        </mxCell>
        <mxCell id="DDEnpmRq-jySMfK6d3gm-51" style="edgeStyle=orthogonalEdgeStyle;rounded=0;orthogonalLoop=1;jettySize=auto;html=1;exitX=0.5;exitY=1;exitDx=0;exitDy=0;entryX=0.5;entryY=0;entryDx=0;entryDy=0;strokeColor=light-dark(#000000,#FFFFFF);" edge="1" parent="1" source="DDEnpmRq-jySMfK6d3gm-23" target="DDEnpmRq-jySMfK6d3gm-2">
          <mxGeometry relative="1" as="geometry" />
        </mxCell>
        <mxCell id="DDEnpmRq-jySMfK6d3gm-23" value="&lt;font face=&quot;Lucida Console&quot; style=&quot;font-size: 16px;&quot;&gt;&lt;b&gt;reconstruction_errors&lt;/b&gt;&lt;/font&gt;" style="text;html=1;align=center;verticalAlign=middle;whiteSpace=wrap;rounded=0;" vertex="1" parent="1">
          <mxGeometry x="40" y="1240" width="240" height="40" as="geometry" />
        </mxCell>
        <mxCell id="DDEnpmRq-jySMfK6d3gm-60" value="" style="edgeStyle=orthogonalEdgeStyle;rounded=0;orthogonalLoop=1;jettySize=auto;html=1;strokeColor=light-dark(#000000,#FFFFFF);" edge="1" parent="1" source="DDEnpmRq-jySMfK6d3gm-32" target="DDEnpmRq-jySMfK6d3gm-42">
          <mxGeometry relative="1" as="geometry" />
        </mxCell>
        <mxCell id="DDEnpmRq-jySMfK6d3gm-32" value="&lt;font style=&quot;font-size: 16px;&quot;&gt;Benign&lt;/font&gt;" style="rounded=0;whiteSpace=wrap;html=1;fillColor=none;" vertex="1" parent="1">
          <mxGeometry x="480" y="2040" width="240" height="80" as="geometry" />
        </mxCell>
        <mxCell id="DDEnpmRq-jySMfK6d3gm-68" value="" style="edgeStyle=orthogonalEdgeStyle;rounded=0;orthogonalLoop=1;jettySize=auto;html=1;strokeColor=light-dark(#000000,#FFFFFF);" edge="1" parent="1" source="DDEnpmRq-jySMfK6d3gm-33" target="DDEnpmRq-jySMfK6d3gm-65">
          <mxGeometry relative="1" as="geometry" />
        </mxCell>
        <mxCell id="DDEnpmRq-jySMfK6d3gm-33" value="&lt;font style=&quot;font-size: 16px;&quot;&gt;Anomaly&lt;/font&gt;" style="rounded=0;whiteSpace=wrap;html=1;fillColor=none;" vertex="1" parent="1">
          <mxGeometry x="-401" y="2040" width="240" height="80" as="geometry" />
        </mxCell>
        <mxCell id="DDEnpmRq-jySMfK6d3gm-63" value="" style="edgeStyle=orthogonalEdgeStyle;rounded=0;orthogonalLoop=1;jettySize=auto;html=1;strokeColor=light-dark(#000000,#FFFFFF);" edge="1" parent="1" source="DDEnpmRq-jySMfK6d3gm-38" target="DDEnpmRq-jySMfK6d3gm-45">
          <mxGeometry relative="1" as="geometry" />
        </mxCell>
        <mxCell id="DDEnpmRq-jySMfK6d3gm-64" value="&lt;font style=&quot;font-size: 16px;&quot;&gt;YES&lt;/font&gt;" style="edgeLabel;html=1;align=center;verticalAlign=middle;resizable=0;points=[];" vertex="1" connectable="0" parent="DDEnpmRq-jySMfK6d3gm-63">
          <mxGeometry x="0.0048" relative="1" as="geometry">
            <mxPoint as="offset" />
          </mxGeometry>
        </mxCell>
        <mxCell id="DDEnpmRq-jySMfK6d3gm-38" value="&lt;span style=&quot;font-size: 16px;&quot;&gt;&lt;font face=&quot;Lucida Console&quot;&gt;Δ_threshold_model&lt;/font&gt;&lt;/span&gt;&lt;div&gt;&lt;span style=&quot;font-size: 16px;&quot;&gt;&lt;font face=&quot;Lucida Console&quot;&gt;&amp;gt;&lt;/font&gt;&lt;/span&gt;&lt;div&gt;&lt;span style=&quot;font-size: 16px;&quot;&gt;&lt;font face=&quot;Lucida Console&quot;&gt;ε_model&lt;/font&gt;&lt;/span&gt;&lt;/div&gt;&lt;/div&gt;" style="rhombus;whiteSpace=wrap;html=1;fillColor=none;" vertex="1" parent="1">
          <mxGeometry x="717.25" y="2598" width="240" height="240" as="geometry" />
        </mxCell>
        <mxCell id="DDEnpmRq-jySMfK6d3gm-61" value="" style="edgeStyle=orthogonalEdgeStyle;rounded=0;orthogonalLoop=1;jettySize=auto;html=1;strokeColor=light-dark(#000000,#FFFFFF);" edge="1" parent="1" source="DDEnpmRq-jySMfK6d3gm-42" target="DDEnpmRq-jySMfK6d3gm-44">
          <mxGeometry relative="1" as="geometry" />
        </mxCell>
        <mxCell id="DDEnpmRq-jySMfK6d3gm-42" value="&lt;font style=&quot;font-size: 16px;&quot;&gt;Update&amp;nbsp;&lt;/font&gt;&lt;div&gt;&lt;font style=&quot;font-size: 16px;&quot;&gt;Local Threshold Model&lt;/font&gt;&lt;/div&gt;" style="shape=parallelogram;perimeter=parallelogramPerimeter;whiteSpace=wrap;html=1;fixedSize=1;fillColor=none;" vertex="1" parent="1">
          <mxGeometry x="480" y="2200" width="240" height="80" as="geometry" />
        </mxCell>
        <mxCell id="DDEnpmRq-jySMfK6d3gm-62" value="" style="edgeStyle=orthogonalEdgeStyle;rounded=0;orthogonalLoop=1;jettySize=auto;html=1;strokeColor=light-dark(#000000,#FFFFFF);" edge="1" parent="1" source="DDEnpmRq-jySMfK6d3gm-44" target="DDEnpmRq-jySMfK6d3gm-38">
          <mxGeometry relative="1" as="geometry" />
        </mxCell>
        <mxCell id="DDEnpmRq-jySMfK6d3gm-44" value="&lt;span style=&quot;font-family: &amp;quot;Lucida Console&amp;quot;; font-size: 16px;&quot;&gt;&lt;b&gt;Δ_threshold_model&lt;/b&gt;&amp;nbsp;&lt;/span&gt;&lt;div&gt;&lt;span style=&quot;font-family: &amp;quot;Lucida Console&amp;quot;; font-size: 16px;&quot;&gt;=&lt;/span&gt;&lt;/div&gt;&lt;div&gt;&lt;span style=&quot;font-family: &amp;quot;Lucida Console&amp;quot;; font-size: 16px;&quot;&gt;L2(local_threshold_model, global_threshold_model)&lt;/span&gt;&lt;/div&gt;" style="text;html=1;align=center;verticalAlign=middle;whiteSpace=wrap;rounded=0;" vertex="1" parent="1">
          <mxGeometry x="599.75" y="2438" width="475" height="80" as="geometry" />
        </mxCell>
        <mxCell id="DDEnpmRq-jySMfK6d3gm-45" value="&lt;font style=&quot;font-size: 16px;&quot;&gt;Update&lt;/font&gt;&lt;div&gt;&lt;font style=&quot;font-size: 16px;&quot;&gt;Global Threshold Model&lt;/font&gt;&lt;/div&gt;" style="shape=parallelogram;perimeter=parallelogramPerimeter;whiteSpace=wrap;html=1;fixedSize=1;fillColor=none;" vertex="1" parent="1">
          <mxGeometry x="717.25" y="2918" width="240" height="80" as="geometry" />
        </mxCell>
        <mxCell id="DDEnpmRq-jySMfK6d3gm-69" value="" style="edgeStyle=orthogonalEdgeStyle;rounded=0;orthogonalLoop=1;jettySize=auto;html=1;strokeColor=light-dark(#000000,#FFFFFF);" edge="1" parent="1" source="DDEnpmRq-jySMfK6d3gm-65" target="DDEnpmRq-jySMfK6d3gm-66">
          <mxGeometry relative="1" as="geometry" />
        </mxCell>
        <mxCell id="DDEnpmRq-jySMfK6d3gm-89" value="&lt;font style=&quot;font-size: 16px;&quot;&gt;YES&lt;/font&gt;" style="edgeLabel;html=1;align=center;verticalAlign=middle;resizable=0;points=[];" vertex="1" connectable="0" parent="DDEnpmRq-jySMfK6d3gm-69">
          <mxGeometry x="-0.0905" relative="1" as="geometry">
            <mxPoint as="offset" />
          </mxGeometry>
        </mxCell>
        <mxCell id="DDEnpmRq-jySMfK6d3gm-65" value="&lt;span style=&quot;font-size: 16px;&quot;&gt;&lt;font face=&quot;Lucida Console&quot;&gt;N&lt;/font&gt;&lt;/span&gt;&lt;div&gt;&lt;span style=&quot;font-size: 16px;&quot;&gt;&lt;font face=&quot;Helvetica&quot;&gt;consecutives anomalies?&lt;/font&gt;&lt;/span&gt;&lt;/div&gt;" style="rhombus;whiteSpace=wrap;html=1;fillColor=none;" vertex="1" parent="1">
          <mxGeometry x="-401" y="2200" width="240" height="240" as="geometry" />
        </mxCell>
        <mxCell id="DDEnpmRq-jySMfK6d3gm-199" value="" style="edgeStyle=orthogonalEdgeStyle;rounded=0;orthogonalLoop=1;jettySize=auto;html=1;strokeColor=light-dark(#000000,#FFFFFF);" edge="1" parent="1" source="DDEnpmRq-jySMfK6d3gm-66" target="DDEnpmRq-jySMfK6d3gm-198">
          <mxGeometry relative="1" as="geometry" />
        </mxCell>
        <mxCell id="DDEnpmRq-jySMfK6d3gm-200" value="&lt;font style=&quot;font-size: 16px;&quot;&gt;YES&lt;/font&gt;" style="edgeLabel;html=1;align=center;verticalAlign=middle;resizable=0;points=[];" vertex="1" connectable="0" parent="DDEnpmRq-jySMfK6d3gm-199">
          <mxGeometry x="-0.0056" relative="1" as="geometry">
            <mxPoint as="offset" />
          </mxGeometry>
        </mxCell>
        <mxCell id="DDEnpmRq-jySMfK6d3gm-66" value="&lt;span style=&quot;font-size: 16px;&quot;&gt;False Positive?&lt;/span&gt;" style="rhombus;whiteSpace=wrap;html=1;fillColor=none;" vertex="1" parent="1">
          <mxGeometry x="-401" y="2520" width="240" height="240" as="geometry" />
        </mxCell>
        <mxCell id="DDEnpmRq-jySMfK6d3gm-79" value="" style="edgeStyle=orthogonalEdgeStyle;rounded=0;orthogonalLoop=1;jettySize=auto;html=1;dashed=1;endArrow=none;endFill=0;strokeColor=light-dark(#000000,#FFFFFF);" edge="1" parent="1" source="DDEnpmRq-jySMfK6d3gm-67" target="DDEnpmRq-jySMfK6d3gm-70">
          <mxGeometry relative="1" as="geometry" />
        </mxCell>
        <mxCell id="DDEnpmRq-jySMfK6d3gm-67" value="" style="shape=curlyBracket;whiteSpace=wrap;html=1;rounded=1;labelPosition=left;verticalLabelPosition=middle;align=right;verticalAlign=middle;dashed=1;strokeColor=light-dark(#000000,#FFFFFF);" vertex="1" parent="1">
          <mxGeometry x="-481" y="2520" width="40" height="240" as="geometry" />
        </mxCell>
        <mxCell id="DDEnpmRq-jySMfK6d3gm-70" value="&lt;h1 style=&quot;margin-top: 0px;&quot;&gt;Operator&lt;/h1&gt;&lt;p style=&quot;&quot;&gt;&lt;span style=&quot;font-size: 16px;&quot;&gt;In this system, the operator provides optional feedback used to improve the entire system. While the specific method an operator uses to check for false positives is out of scope, their feedback is crucial: in cases of false positives, it is used to improve the local model and, under certain conditions, also the global one. The ultimate objective is to create a system that minimizes the need for operator intervention.&lt;/span&gt;&lt;/p&gt;" style="text;html=1;align=left;verticalAlign=middle;whiteSpace=wrap;rounded=0;" vertex="1" parent="1">
          <mxGeometry x="-1041" y="2520" width="520" height="240" as="geometry" />
        </mxCell>
        <mxCell id="DDEnpmRq-jySMfK6d3gm-85" value="" style="edgeStyle=orthogonalEdgeStyle;rounded=0;orthogonalLoop=1;jettySize=auto;html=1;strokeColor=light-dark(#000000,#FFFFFF);" edge="1" parent="1" source="DDEnpmRq-jySMfK6d3gm-71" target="DDEnpmRq-jySMfK6d3gm-81">
          <mxGeometry relative="1" as="geometry" />
        </mxCell>
        <mxCell id="DDEnpmRq-jySMfK6d3gm-190" style="edgeStyle=orthogonalEdgeStyle;rounded=0;orthogonalLoop=1;jettySize=auto;html=1;exitX=0.5;exitY=1;exitDx=0;exitDy=0;strokeColor=light-dark(#000000,#FFFFFF);" edge="1" parent="1" source="DDEnpmRq-jySMfK6d3gm-71" target="DDEnpmRq-jySMfK6d3gm-191">
          <mxGeometry relative="1" as="geometry">
            <mxPoint x="-0.5" y="3401" as="targetPoint" />
          </mxGeometry>
        </mxCell>
        <mxCell id="DDEnpmRq-jySMfK6d3gm-71" value="&lt;font style=&quot;font-size: 16px;&quot;&gt;Update&lt;/font&gt;&lt;div&gt;&lt;font style=&quot;font-size: 16px;&quot;&gt;Local Autoencoder Model&lt;/font&gt;&lt;/div&gt;" style="shape=parallelogram;perimeter=parallelogramPerimeter;whiteSpace=wrap;html=1;fixedSize=1;fillColor=none;" vertex="1" parent="1">
          <mxGeometry x="-400.5" y="3160" width="240" height="80" as="geometry" />
        </mxCell>
        <mxCell id="DDEnpmRq-jySMfK6d3gm-76" value="" style="edgeStyle=orthogonalEdgeStyle;rounded=0;orthogonalLoop=1;jettySize=auto;html=1;strokeColor=light-dark(#000000,#FFFFFF);dashed=1;endArrow=none;endFill=0;" edge="1" parent="1" source="DDEnpmRq-jySMfK6d3gm-72" target="DDEnpmRq-jySMfK6d3gm-3">
          <mxGeometry relative="1" as="geometry" />
        </mxCell>
        <mxCell id="DDEnpmRq-jySMfK6d3gm-72" value="" style="shape=curlyBracket;whiteSpace=wrap;html=1;rounded=1;labelPosition=left;verticalLabelPosition=middle;align=right;verticalAlign=middle;dashed=1;strokeColor=light-dark(#000000,#FFFFFF);" vertex="1" parent="1">
          <mxGeometry x="-40" y="920" width="40" height="360" as="geometry" />
        </mxCell>
        <mxCell id="DDEnpmRq-jySMfK6d3gm-77" value="" style="edgeStyle=orthogonalEdgeStyle;rounded=0;orthogonalLoop=1;jettySize=auto;html=1;endArrow=none;endFill=0;dashed=1;strokeColor=light-dark(#000000,#FFFFFF);" edge="1" parent="1" source="DDEnpmRq-jySMfK6d3gm-73" target="DDEnpmRq-jySMfK6d3gm-6">
          <mxGeometry relative="1" as="geometry" />
        </mxCell>
        <mxCell id="DDEnpmRq-jySMfK6d3gm-73" value="" style="shape=curlyBracket;whiteSpace=wrap;html=1;rounded=1;flipH=1;labelPosition=right;verticalLabelPosition=middle;align=left;verticalAlign=middle;dashed=1;strokeColor=light-dark(#000000,#FFFFFF);" vertex="1" parent="1">
          <mxGeometry x="320" y="760" width="40" height="80" as="geometry" />
        </mxCell>
        <mxCell id="DDEnpmRq-jySMfK6d3gm-78" value="" style="edgeStyle=orthogonalEdgeStyle;rounded=0;orthogonalLoop=1;jettySize=auto;html=1;dashed=1;endArrow=none;endFill=0;strokeColor=light-dark(#000000,#FFFFFF);" edge="1" parent="1" source="DDEnpmRq-jySMfK6d3gm-74" target="DDEnpmRq-jySMfK6d3gm-5">
          <mxGeometry relative="1" as="geometry" />
        </mxCell>
        <mxCell id="DDEnpmRq-jySMfK6d3gm-74" value="" style="shape=curlyBracket;whiteSpace=wrap;html=1;rounded=1;flipH=1;labelPosition=right;verticalLabelPosition=middle;align=left;verticalAlign=middle;dashed=1;strokeColor=light-dark(#000000,#FFFFFF);" vertex="1" parent="1">
          <mxGeometry x="320.5" y="1360" width="40" height="80" as="geometry" />
        </mxCell>
        <mxCell id="DDEnpmRq-jySMfK6d3gm-80" value="" style="edgeStyle=orthogonalEdgeStyle;rounded=0;orthogonalLoop=1;jettySize=auto;html=1;endArrow=none;endFill=0;dashed=1;strokeColor=light-dark(#000000,#FFFFFF);" edge="1" parent="1" source="DDEnpmRq-jySMfK6d3gm-75" target="DDEnpmRq-jySMfK6d3gm-10">
          <mxGeometry relative="1" as="geometry" />
        </mxCell>
        <mxCell id="DDEnpmRq-jySMfK6d3gm-75" value="" style="shape=curlyBracket;whiteSpace=wrap;html=1;rounded=1;flipH=1;labelPosition=right;verticalLabelPosition=middle;align=left;verticalAlign=middle;direction=south;dashed=1;strokeColor=light-dark(#000000,#FFFFFF);" vertex="1" parent="1">
          <mxGeometry x="119.5" y="559.87" width="80" height="40" as="geometry" />
        </mxCell>
        <mxCell id="DDEnpmRq-jySMfK6d3gm-86" value="" style="edgeStyle=orthogonalEdgeStyle;rounded=0;orthogonalLoop=1;jettySize=auto;html=1;strokeColor=light-dark(#000000,#FFFFFF);" edge="1" parent="1" source="DDEnpmRq-jySMfK6d3gm-81" target="DDEnpmRq-jySMfK6d3gm-82">
          <mxGeometry relative="1" as="geometry" />
        </mxCell>
        <mxCell id="DDEnpmRq-jySMfK6d3gm-81" value="&lt;span style=&quot;font-family: &amp;quot;Lucida Console&amp;quot;; font-size: 16px;&quot;&gt;&lt;b&gt;Δ_autoencoder_model&lt;/b&gt;&amp;nbsp;&lt;/span&gt;&lt;div&gt;&lt;span style=&quot;font-family: &amp;quot;Lucida Console&amp;quot;; font-size: 16px;&quot;&gt;=&lt;/span&gt;&lt;/div&gt;&lt;div&gt;&lt;span style=&quot;font-family: &amp;quot;Lucida Console&amp;quot;; font-size: 16px;&quot;&gt;L2(local_autoencoder_model, global_autoencoder_model)&lt;/span&gt;&lt;/div&gt;" style="text;html=1;align=center;verticalAlign=middle;whiteSpace=wrap;rounded=0;" vertex="1" parent="1">
          <mxGeometry x="-840.5" y="3401" width="560" height="80" as="geometry" />
        </mxCell>
        <mxCell id="DDEnpmRq-jySMfK6d3gm-87" value="" style="edgeStyle=orthogonalEdgeStyle;rounded=0;orthogonalLoop=1;jettySize=auto;html=1;strokeColor=light-dark(#000000,#FFFFFF);" edge="1" parent="1" source="DDEnpmRq-jySMfK6d3gm-82" target="DDEnpmRq-jySMfK6d3gm-83">
          <mxGeometry relative="1" as="geometry" />
        </mxCell>
        <mxCell id="DDEnpmRq-jySMfK6d3gm-88" value="&lt;font style=&quot;font-size: 16px;&quot;&gt;YES&lt;/font&gt;" style="edgeLabel;html=1;align=center;verticalAlign=middle;resizable=0;points=[];" vertex="1" connectable="0" parent="DDEnpmRq-jySMfK6d3gm-87">
          <mxGeometry x="-0.019" relative="1" as="geometry">
            <mxPoint as="offset" />
          </mxGeometry>
        </mxCell>
        <mxCell id="DDEnpmRq-jySMfK6d3gm-82" value="&lt;span style=&quot;font-size: 16px;&quot;&gt;&lt;font face=&quot;Lucida Console&quot;&gt;Δ_autoencoder_model&lt;/font&gt;&lt;/span&gt;&lt;div&gt;&lt;span style=&quot;font-size: 16px;&quot;&gt;&lt;font face=&quot;Lucida Console&quot;&gt;&amp;gt;&lt;/font&gt;&lt;/span&gt;&lt;div&gt;&lt;span style=&quot;font-size: 16px;&quot;&gt;&lt;font face=&quot;Lucida Console&quot;&gt;ε_model&lt;/font&gt;&lt;/span&gt;&lt;/div&gt;&lt;/div&gt;" style="rhombus;whiteSpace=wrap;html=1;fillColor=none;" vertex="1" parent="1">
          <mxGeometry x="-680.5" y="3561" width="240" height="240" as="geometry" />
        </mxCell>
        <mxCell id="DDEnpmRq-jySMfK6d3gm-83" value="&lt;font style=&quot;font-size: 16px;&quot;&gt;Update&lt;/font&gt;&lt;div&gt;&lt;font style=&quot;font-size: 16px;&quot;&gt;Global Autoencoder Model&lt;/font&gt;&lt;/div&gt;" style="shape=parallelogram;perimeter=parallelogramPerimeter;whiteSpace=wrap;html=1;fixedSize=1;fillColor=none;" vertex="1" parent="1">
          <mxGeometry x="-680.5" y="3881" width="240" height="80" as="geometry" />
        </mxCell>
        <mxCell id="DDEnpmRq-jySMfK6d3gm-98" value="&lt;h1 style=&quot;margin-top: 0px;&quot;&gt;Benign Classifications&lt;/h1&gt;&lt;p style=&quot;&quot;&gt;&lt;font style=&quot;font-size: 16px;&quot;&gt;Controlling false negatives in benign classifications is extremely challenging, if not impossible. Unlike false positives, where an operator can verify the classification, there isn&#39;t a similarly specific method to address false negatives.&lt;/font&gt;&lt;/p&gt;" style="text;html=1;whiteSpace=wrap;overflow=hidden;rounded=0;verticalAlign=middle;align=left;" vertex="1" parent="1">
          <mxGeometry x="837.5" y="2015" width="550" height="130" as="geometry" />
        </mxCell>
        <mxCell id="DDEnpmRq-jySMfK6d3gm-99" value="" style="edgeStyle=orthogonalEdgeStyle;rounded=0;orthogonalLoop=1;jettySize=auto;html=1;dashed=1;endArrow=none;endFill=0;strokeColor=light-dark(#000000,#FFFFFF);" edge="1" parent="1" source="DDEnpmRq-jySMfK6d3gm-100" target="DDEnpmRq-jySMfK6d3gm-98">
          <mxGeometry relative="1" as="geometry" />
        </mxCell>
        <mxCell id="DDEnpmRq-jySMfK6d3gm-100" value="" style="shape=curlyBracket;whiteSpace=wrap;html=1;rounded=1;flipH=1;labelPosition=right;verticalLabelPosition=middle;align=left;verticalAlign=middle;dashed=1;strokeColor=light-dark(#000000,#FFFFFF);" vertex="1" parent="1">
          <mxGeometry x="760" y="2040" width="40" height="80" as="geometry" />
        </mxCell>
        <mxCell id="DDEnpmRq-jySMfK6d3gm-101" value="&lt;h1 style=&quot;margin-top: 0px;&quot;&gt;N&lt;/h1&gt;&lt;p style=&quot;&quot;&gt;&lt;span style=&quot;font-size: 16px;&quot;&gt;Unlike other values, &lt;font style=&quot;color: light-dark(rgb(0, 0, 0), rgb(255, 102, 102));&quot; face=&quot;Lucida Console&quot;&gt;N&lt;/font&gt; is hardcoded. Dynamically determining &lt;font style=&quot;color: light-dark(rgb(0, 0, 0), rgb(255, 102, 102));&quot; face=&quot;Lucida Console&quot;&gt;N&lt;/font&gt; could introduce too many dynamic variables into the system, significantly increasing its complexity.&lt;/span&gt;&lt;/p&gt;" style="text;html=1;whiteSpace=wrap;overflow=hidden;rounded=0;verticalAlign=middle;" vertex="1" parent="1">
          <mxGeometry x="-1041" y="2240" width="520" height="160" as="geometry" />
        </mxCell>
        <mxCell id="DDEnpmRq-jySMfK6d3gm-102" value="" style="edgeStyle=orthogonalEdgeStyle;rounded=0;orthogonalLoop=1;jettySize=auto;html=1;strokeColor=light-dark(#000000,#FFFFFF);dashed=1;endArrow=none;endFill=0;" edge="1" parent="1" source="DDEnpmRq-jySMfK6d3gm-103" target="DDEnpmRq-jySMfK6d3gm-101">
          <mxGeometry relative="1" as="geometry" />
        </mxCell>
        <mxCell id="DDEnpmRq-jySMfK6d3gm-103" value="" style="shape=curlyBracket;whiteSpace=wrap;html=1;rounded=1;labelPosition=left;verticalLabelPosition=middle;align=right;verticalAlign=middle;dashed=1;strokeColor=light-dark(#000000,#FFFFFF);" vertex="1" parent="1">
          <mxGeometry x="-481" y="2200" width="40" height="240" as="geometry" />
        </mxCell>
        <mxCell id="DDEnpmRq-jySMfK6d3gm-104" value="&lt;h1 style=&quot;margin-top: 0px;&quot;&gt;Anomaly Classifications&lt;/h1&gt;&lt;p style=&quot;&quot;&gt;&lt;span style=&quot;font-size: 16px;&quot;&gt;Controlling false positives is easier than false negatives. In this scenario, an operator can verify the classification, and their feedback can then be used to update the entire system.&lt;/span&gt;&lt;/p&gt;" style="text;html=1;whiteSpace=wrap;overflow=hidden;rounded=0;verticalAlign=middle;" vertex="1" parent="1">
          <mxGeometry x="-1041" y="2000" width="520" height="160" as="geometry" />
        </mxCell>
        <mxCell id="DDEnpmRq-jySMfK6d3gm-105" value="" style="edgeStyle=orthogonalEdgeStyle;rounded=0;orthogonalLoop=1;jettySize=auto;html=1;strokeColor=light-dark(#000000,#FFFFFF);dashed=1;endArrow=none;endFill=0;" edge="1" parent="1" source="DDEnpmRq-jySMfK6d3gm-106" target="DDEnpmRq-jySMfK6d3gm-104">
          <mxGeometry relative="1" as="geometry" />
        </mxCell>
        <mxCell id="DDEnpmRq-jySMfK6d3gm-106" value="" style="shape=curlyBracket;whiteSpace=wrap;html=1;rounded=1;labelPosition=left;verticalLabelPosition=middle;align=right;verticalAlign=middle;dashed=1;strokeColor=light-dark(#000000,#FFFFFF);" vertex="1" parent="1">
          <mxGeometry x="-481" y="2040" width="40" height="80" as="geometry" />
        </mxCell>
        <mxCell id="DDEnpmRq-jySMfK6d3gm-107" value="&lt;h1 style=&quot;margin-top: 0px;&quot;&gt;Classification&lt;/h1&gt;&lt;p style=&quot;&quot;&gt;&lt;font style=&quot;font-size: 16px;&quot;&gt;The classification method is directly adopted from DAICS.&lt;/font&gt;&lt;/p&gt;&lt;p style=&quot;&quot;&gt;&lt;/p&gt;&lt;ul&gt;&lt;li&gt;&lt;font style=&quot;font-size: 16px;&quot;&gt;&lt;span style=&quot;font-family: &amp;quot;Lucida Console&amp;quot;; text-align: center;&quot;&gt;&lt;font style=&quot;color: rgb(255, 102, 102);&quot;&gt;&lt;b style=&quot;&quot;&gt;max(threshold_outputs)&lt;/b&gt;&lt;/font&gt; -&amp;gt; C&lt;/span&gt;&lt;span style=&quot;text-align: center;&quot;&gt;&lt;font face=&quot;Helvetica&quot;&gt;alculated each time.&lt;/font&gt;&lt;/span&gt;&lt;/font&gt;&lt;/li&gt;&lt;li style=&quot;text-align: left;&quot;&gt;&lt;font style=&quot;font-size: 16px;&quot;&gt;&lt;font style=&quot;color: rgb(255, 102, 102);&quot;&gt;&lt;font style=&quot;text-align: center;&quot; face=&quot;Lucida Console&quot;&gt;&lt;b style=&quot;&quot;&gt;&lt;font&gt;t_base&amp;nbsp;&lt;/font&gt;&lt;/b&gt;&lt;/font&gt;&lt;b style=&quot;text-align: center; background-color: transparent; font-family: &amp;quot;Lucida Console&amp;quot;;&quot;&gt;=&amp;nbsp;&lt;/b&gt;&lt;span style=&quot;text-align: center; background-color: transparent;&quot;&gt;μ(&lt;/span&gt;&lt;span style=&quot;text-align: center; background-color: transparent; font-family: &amp;quot;Lucida Console&amp;quot;;&quot;&gt;reconstruction_errors&lt;/span&gt;&lt;span style=&quot;text-align: center; background-color: transparent;&quot;&gt;)&amp;nbsp;&lt;/span&gt;&lt;span style=&quot;text-align: center; background-color: transparent;&quot;&gt;+&amp;nbsp;&lt;/span&gt;&lt;span style=&quot;text-align: center; background-color: transparent;&quot;&gt;σ(&lt;/span&gt;&lt;span style=&quot;text-align: center; background-color: transparent; font-family: &amp;quot;Lucida Console&amp;quot;;&quot;&gt;reconstruction_errors)&lt;/span&gt;&lt;/font&gt;&lt;span style=&quot;color: light-dark(rgb(0, 0, 0), rgb(255, 255, 255)); text-align: center; background-color: transparent; font-family: &amp;quot;Lucida Console&amp;quot;;&quot;&gt; &lt;/span&gt;&lt;span style=&quot;color: light-dark(rgb(0, 0, 0), rgb(255, 255, 255)); text-align: center; background-color: transparent;&quot;&gt;&lt;font face=&quot;Lucida Console&quot;&gt;-&amp;gt;&amp;nbsp;&lt;/font&gt;&lt;/span&gt;&lt;/font&gt;&lt;span style=&quot;font-size: 16px;&quot;&gt;Recalculated only when the autoencoder is retrained (see below).&amp;nbsp;&lt;b&gt;Note&lt;/b&gt;: The system initializes with a &lt;font style=&quot;color: light-dark(rgb(0, 0, 0), rgb(255, 102, 102));&quot; face=&quot;Lucida Console&quot;&gt;t_base&lt;/font&gt; value derived from the training session.&lt;/span&gt;&lt;/li&gt;&lt;/ul&gt;&lt;p&gt;&lt;/p&gt;" style="text;html=1;whiteSpace=wrap;overflow=hidden;rounded=0;verticalAlign=middle;align=left;" vertex="1" parent="1">
          <mxGeometry x="439.75" y="1720" width="1100.25" height="160" as="geometry" />
        </mxCell>
        <mxCell id="DDEnpmRq-jySMfK6d3gm-108" value="" style="edgeStyle=orthogonalEdgeStyle;rounded=0;orthogonalLoop=1;jettySize=auto;html=1;dashed=1;endArrow=none;endFill=0;strokeColor=light-dark(#000000,#FFFFFF);" edge="1" parent="1" source="DDEnpmRq-jySMfK6d3gm-109" target="DDEnpmRq-jySMfK6d3gm-107">
          <mxGeometry relative="1" as="geometry" />
        </mxCell>
        <mxCell id="DDEnpmRq-jySMfK6d3gm-109" value="" style="shape=curlyBracket;whiteSpace=wrap;html=1;rounded=1;flipH=1;labelPosition=right;verticalLabelPosition=middle;align=left;verticalAlign=middle;dashed=1;strokeColor=light-dark(#000000,#FFFFFF);" vertex="1" parent="1">
          <mxGeometry x="360.25" y="1640" width="40" height="320" as="geometry" />
        </mxCell>
        <mxCell id="DDEnpmRq-jySMfK6d3gm-110" value="&lt;h1 style=&quot;margin-top: 0px;&quot;&gt;Update Local Threshold Model&lt;/h1&gt;&lt;p style=&quot;&quot;&gt;&lt;font style=&quot;font-size: 16px;&quot;&gt;The update procedure mirrors that of DAICS: a single epoch of Stochastic Gradient Descent (SGD). Updating the threshold model with each benign sample helps the system remain robust against evolving noise levels and minor shifts.&lt;/font&gt;&lt;/p&gt;" style="text;html=1;whiteSpace=wrap;overflow=hidden;rounded=0;verticalAlign=middle;align=left;" vertex="1" parent="1">
          <mxGeometry x="837.5" y="2175" width="550" height="130" as="geometry" />
        </mxCell>
        <mxCell id="DDEnpmRq-jySMfK6d3gm-111" value="" style="edgeStyle=orthogonalEdgeStyle;rounded=0;orthogonalLoop=1;jettySize=auto;html=1;dashed=1;endArrow=none;endFill=0;strokeColor=light-dark(#000000,#FFFFFF);" edge="1" parent="1" source="DDEnpmRq-jySMfK6d3gm-112" target="DDEnpmRq-jySMfK6d3gm-110">
          <mxGeometry relative="1" as="geometry" />
        </mxCell>
        <mxCell id="DDEnpmRq-jySMfK6d3gm-112" value="" style="shape=curlyBracket;whiteSpace=wrap;html=1;rounded=1;flipH=1;labelPosition=right;verticalLabelPosition=middle;align=left;verticalAlign=middle;dashed=1;strokeColor=light-dark(#000000,#FFFFFF);" vertex="1" parent="1">
          <mxGeometry x="760" y="2200" width="40" height="80" as="geometry" />
        </mxCell>
        <mxCell id="DDEnpmRq-jySMfK6d3gm-113" value="&lt;h1 style=&quot;margin-top: 0px;&quot;&gt;&lt;b style=&quot;font-family: &amp;quot;Lucida Console&amp;quot;; text-align: center;&quot;&gt;&lt;font&gt;Δ_threshold_model&lt;/font&gt;&lt;/b&gt;&lt;/h1&gt;&lt;p style=&quot;&quot;&gt;&lt;font style=&quot;font-size: 16px;&quot;&gt;&lt;font style=&quot;color: light-dark(rgb(255, 102, 102), rgb(255, 102, 102));&quot; face=&quot;Lucida Console&quot;&gt;Δ_threshold_model&lt;/font&gt; is calculated as the L2 Distance between the local and global threshold models. This allows us to capture changes in weights that result, for instance, from data shifts.&lt;/font&gt;&lt;/p&gt;" style="text;html=1;whiteSpace=wrap;overflow=hidden;rounded=0;verticalAlign=middle;align=left;" vertex="1" parent="1">
          <mxGeometry x="1194.75" y="2413" width="550" height="130" as="geometry" />
        </mxCell>
        <mxCell id="DDEnpmRq-jySMfK6d3gm-114" value="" style="edgeStyle=orthogonalEdgeStyle;rounded=0;orthogonalLoop=1;jettySize=auto;html=1;dashed=1;endArrow=none;endFill=0;strokeColor=light-dark(#000000,#FFFFFF);" edge="1" parent="1" source="DDEnpmRq-jySMfK6d3gm-115" target="DDEnpmRq-jySMfK6d3gm-113">
          <mxGeometry relative="1" as="geometry" />
        </mxCell>
        <mxCell id="DDEnpmRq-jySMfK6d3gm-115" value="" style="shape=curlyBracket;whiteSpace=wrap;html=1;rounded=1;flipH=1;labelPosition=right;verticalLabelPosition=middle;align=left;verticalAlign=middle;dashed=1;strokeColor=light-dark(#000000,#FFFFFF);" vertex="1" parent="1">
          <mxGeometry x="1117.25" y="2438" width="40" height="80" as="geometry" />
        </mxCell>
        <mxCell id="DDEnpmRq-jySMfK6d3gm-116" value="&lt;h1 style=&quot;margin-top: 0px;&quot;&gt;&lt;span style=&quot;font-family: &amp;quot;Lucida Console&amp;quot;; text-align: center;&quot;&gt;&lt;font style=&quot;font-size: 25px;&quot;&gt;ε_model&lt;/font&gt;&lt;/span&gt;&lt;/h1&gt;&lt;h1 style=&quot;margin-top: 0px;&quot;&gt;&lt;p style=&quot;font-size: 12px; font-weight: 400;&quot;&gt;&lt;span style=&quot;font-size: 16px; text-align: center;&quot;&gt;&lt;font face=&quot;Helvetica&quot;&gt;Unlike other values,&amp;nbsp;&lt;/font&gt;&lt;font style=&quot;color: light-dark(rgb(255, 102, 102), rgb(255, 102, 102));&quot; face=&quot;Lucida Console&quot;&gt;ε_model&lt;/font&gt;&lt;font face=&quot;Helvetica&quot;&gt;&amp;nbsp;is hardcoded. Dynamically determining&amp;nbsp;&lt;/font&gt;&lt;/span&gt;&lt;span style=&quot;font-size: 16px; text-align: center; background-color: transparent;&quot;&gt;&lt;font style=&quot;color: light-dark(rgb(255, 102, 102), rgb(255, 102, 102));&quot; face=&quot;Lucida Console&quot;&gt;ε_model&lt;/font&gt;&lt;/span&gt;&lt;span style=&quot;font-size: 16px; text-align: center; background-color: transparent; color: light-dark(rgb(0, 0, 0), rgb(255, 255, 255));&quot;&gt;&amp;nbsp;could introduce too many dynamic variables into the system, significantly increasing its complexity.&lt;/span&gt;&lt;/p&gt;&lt;/h1&gt;" style="text;html=1;whiteSpace=wrap;overflow=hidden;rounded=0;verticalAlign=middle;align=left;" vertex="1" parent="1">
          <mxGeometry x="1076.75" y="2653" width="550" height="130" as="geometry" />
        </mxCell>
        <mxCell id="DDEnpmRq-jySMfK6d3gm-117" value="" style="edgeStyle=orthogonalEdgeStyle;rounded=0;orthogonalLoop=1;jettySize=auto;html=1;dashed=1;endArrow=none;endFill=0;strokeColor=light-dark(#000000,#FFFFFF);" edge="1" parent="1" source="DDEnpmRq-jySMfK6d3gm-118" target="DDEnpmRq-jySMfK6d3gm-116">
          <mxGeometry relative="1" as="geometry" />
        </mxCell>
        <mxCell id="DDEnpmRq-jySMfK6d3gm-118" value="" style="shape=curlyBracket;whiteSpace=wrap;html=1;rounded=1;flipH=1;labelPosition=right;verticalLabelPosition=middle;align=left;verticalAlign=middle;dashed=1;strokeColor=light-dark(#000000,#FFFFFF);" vertex="1" parent="1">
          <mxGeometry x="998.25" y="2598" width="40" height="240" as="geometry" />
        </mxCell>
        <mxCell id="DDEnpmRq-jySMfK6d3gm-119" value="&lt;h1 style=&quot;margin-top: 0px;&quot;&gt;Update Global Threshold Model&lt;/h1&gt;&lt;p style=&quot;&quot;&gt;&lt;font style=&quot;font-size: 16px;&quot;&gt;If the system determines a global model update is needed, the current local model is sent to the server for aggregation with the global model. The updated global model is then distributed to all clients.&lt;/font&gt;&lt;/p&gt;" style="text;html=1;whiteSpace=wrap;overflow=hidden;rounded=0;verticalAlign=middle;align=left;" vertex="1" parent="1">
          <mxGeometry x="1074.75" y="2893" width="550" height="130" as="geometry" />
        </mxCell>
        <mxCell id="DDEnpmRq-jySMfK6d3gm-120" value="" style="edgeStyle=orthogonalEdgeStyle;rounded=0;orthogonalLoop=1;jettySize=auto;html=1;dashed=1;endArrow=none;endFill=0;strokeColor=light-dark(#000000,#FFFFFF);" edge="1" parent="1" source="DDEnpmRq-jySMfK6d3gm-121" target="DDEnpmRq-jySMfK6d3gm-119">
          <mxGeometry relative="1" as="geometry" />
        </mxCell>
        <mxCell id="DDEnpmRq-jySMfK6d3gm-121" value="" style="shape=curlyBracket;whiteSpace=wrap;html=1;rounded=1;flipH=1;labelPosition=right;verticalLabelPosition=middle;align=left;verticalAlign=middle;dashed=1;strokeColor=light-dark(#000000,#FFFFFF);" vertex="1" parent="1">
          <mxGeometry x="997.25" y="2918" width="40" height="80" as="geometry" />
        </mxCell>
        <mxCell id="DDEnpmRq-jySMfK6d3gm-124" value="" style="edgeStyle=orthogonalEdgeStyle;rounded=0;orthogonalLoop=1;jettySize=auto;html=1;dashed=1;endArrow=none;endFill=0;strokeColor=light-dark(#000000,#FFFFFF);" edge="1" parent="1" target="DDEnpmRq-jySMfK6d3gm-123">
          <mxGeometry relative="1" as="geometry">
            <mxPoint x="-920.5" y="3441" as="sourcePoint" />
          </mxGeometry>
        </mxCell>
        <mxCell id="DDEnpmRq-jySMfK6d3gm-122" value="&lt;h1 style=&quot;margin-top: 0px;&quot;&gt;&lt;b style=&quot;font-family: &amp;quot;Lucida Console&amp;quot;; text-align: center;&quot;&gt;&lt;font&gt;Δ_autoencoder_model&lt;/font&gt;&lt;/b&gt;&lt;/h1&gt;&lt;p style=&quot;&quot;&gt;&lt;font style=&quot;font-size: 16px;&quot;&gt;&lt;font style=&quot;color: light-dark(rgb(255, 102, 102), rgb(255, 102, 102));&quot; face=&quot;Lucida Console&quot;&gt;Δ_autoencoder_model&lt;/font&gt; is calculated as the L2 Distance between the local and global autoencoder models. This allows us to capture changes in weights that result, for instance, from data shifts.&lt;/font&gt;&lt;/p&gt;" style="text;html=1;whiteSpace=wrap;overflow=hidden;rounded=0;verticalAlign=middle;align=left;" vertex="1" parent="1">
          <mxGeometry x="-1470.5" y="3376" width="550" height="130" as="geometry" />
        </mxCell>
        <mxCell id="DDEnpmRq-jySMfK6d3gm-123" value="" style="shape=curlyBracket;whiteSpace=wrap;html=1;rounded=1;labelPosition=left;verticalLabelPosition=middle;align=right;verticalAlign=middle;dashed=1;strokeColor=light-dark(#000000,#FFFFFF);" vertex="1" parent="1">
          <mxGeometry x="-880.5" y="3401" width="40" height="80" as="geometry" />
        </mxCell>
        <mxCell id="DDEnpmRq-jySMfK6d3gm-125" value="&lt;h1 style=&quot;margin-top: 0px;&quot;&gt;Update Local Autoencoder Model&lt;/h1&gt;&lt;h1 style=&quot;margin-top: 0px;&quot;&gt;&lt;p style=&quot;font-size: 12px; font-weight: 400;&quot;&gt;&lt;font style=&quot;font-size: 16px;&quot;&gt;The update procedure mirrors that of DAICS: a single epoch of Stochastic Gradient Descent (SGD). Updating the autoencoder model with each benign sample helps the system remain robust against evolving noise levels and minor shifts.&lt;/font&gt;&lt;/p&gt;&lt;/h1&gt;" style="text;html=1;whiteSpace=wrap;overflow=hidden;rounded=0;verticalAlign=middle;align=left;" vertex="1" parent="1">
          <mxGeometry x="-1070.5" y="3135" width="550" height="130" as="geometry" />
        </mxCell>
        <mxCell id="DDEnpmRq-jySMfK6d3gm-126" value="" style="edgeStyle=orthogonalEdgeStyle;rounded=0;orthogonalLoop=1;jettySize=auto;html=1;dashed=1;endArrow=none;endFill=0;exitX=1;exitY=0.5;exitDx=0;exitDy=0;strokeColor=light-dark(#000000,#FFFFFF);" edge="1" parent="1" target="DDEnpmRq-jySMfK6d3gm-127" source="DDEnpmRq-jySMfK6d3gm-125">
          <mxGeometry relative="1" as="geometry">
            <mxPoint x="-520.5" y="3200" as="sourcePoint" />
          </mxGeometry>
        </mxCell>
        <mxCell id="DDEnpmRq-jySMfK6d3gm-127" value="" style="shape=curlyBracket;whiteSpace=wrap;html=1;rounded=1;labelPosition=left;verticalLabelPosition=middle;align=right;verticalAlign=middle;dashed=1;strokeColor=light-dark(#000000,#FFFFFF);" vertex="1" parent="1">
          <mxGeometry x="-480.5" y="3160" width="40" height="80" as="geometry" />
        </mxCell>
        <mxCell id="DDEnpmRq-jySMfK6d3gm-128" value="&lt;h1 style=&quot;margin-top: 0px;&quot;&gt;Update Global Autoencoder Model&lt;/h1&gt;&lt;h1 style=&quot;margin-top: 0px;&quot;&gt;&lt;p style=&quot;font-size: 12px; font-weight: 400;&quot;&gt;&lt;font style=&quot;font-size: 16px;&quot;&gt;If the system determines a global model update is needed, the current local model is sent to the server for aggregation with the global model. The updated global model is then distributed to all clients.&lt;/font&gt;&lt;/p&gt;&lt;/h1&gt;" style="text;html=1;whiteSpace=wrap;overflow=hidden;rounded=0;verticalAlign=middle;align=left;" vertex="1" parent="1">
          <mxGeometry x="-1350.5" y="3856" width="550" height="130" as="geometry" />
        </mxCell>
        <mxCell id="DDEnpmRq-jySMfK6d3gm-129" value="" style="edgeStyle=orthogonalEdgeStyle;rounded=0;orthogonalLoop=1;jettySize=auto;html=1;dashed=1;endArrow=none;endFill=0;exitX=1;exitY=0.5;exitDx=0;exitDy=0;strokeColor=light-dark(#000000,#FFFFFF);" edge="1" parent="1" source="DDEnpmRq-jySMfK6d3gm-128" target="DDEnpmRq-jySMfK6d3gm-130">
          <mxGeometry relative="1" as="geometry">
            <mxPoint x="-800.5" y="3921" as="sourcePoint" />
          </mxGeometry>
        </mxCell>
        <mxCell id="DDEnpmRq-jySMfK6d3gm-130" value="" style="shape=curlyBracket;whiteSpace=wrap;html=1;rounded=1;labelPosition=left;verticalLabelPosition=middle;align=right;verticalAlign=middle;dashed=1;strokeColor=light-dark(#000000,#FFFFFF);" vertex="1" parent="1">
          <mxGeometry x="-760.5" y="3881" width="40" height="80" as="geometry" />
        </mxCell>
        <mxCell id="DDEnpmRq-jySMfK6d3gm-131" value="&lt;h1 style=&quot;margin-top: 0px;&quot;&gt;&lt;span style=&quot;font-family: &amp;quot;Lucida Console&amp;quot;; text-align: center;&quot;&gt;&lt;font style=&quot;font-size: 25px;&quot;&gt;ε_model&lt;/font&gt;&lt;/span&gt;&lt;/h1&gt;&lt;h1 style=&quot;margin-top: 0px;&quot;&gt;&lt;p style=&quot;font-size: 12px; font-weight: 400;&quot;&gt;&lt;span style=&quot;font-size: 16px; text-align: center;&quot;&gt;&lt;font face=&quot;Helvetica&quot;&gt;Unlike other values,&amp;nbsp;&lt;/font&gt;&lt;font style=&quot;color: light-dark(rgb(255, 102, 102), rgb(255, 102, 102));&quot; face=&quot;Lucida Console&quot;&gt;ε_model&lt;/font&gt;&lt;font face=&quot;Helvetica&quot;&gt;&amp;nbsp;is hardcoded. Dynamically determining&amp;nbsp;&lt;/font&gt;&lt;/span&gt;&lt;span style=&quot;font-size: 16px; text-align: center; background-color: transparent;&quot;&gt;&lt;font style=&quot;color: light-dark(rgb(255, 102, 102), rgb(255, 102, 102));&quot; face=&quot;Lucida Console&quot;&gt;ε_model&lt;/font&gt;&lt;/span&gt;&lt;span style=&quot;font-size: 16px; text-align: center; background-color: transparent; color: light-dark(rgb(0, 0, 0), rgb(255, 255, 255));&quot;&gt;&amp;nbsp;could introduce too many dynamic variables into the system, significantly increasing its complexity.&lt;/span&gt;&lt;/p&gt;&lt;/h1&gt;" style="text;html=1;whiteSpace=wrap;overflow=hidden;rounded=0;verticalAlign=middle;align=left;" vertex="1" parent="1">
          <mxGeometry x="-1310.5" y="3616" width="550" height="130" as="geometry" />
        </mxCell>
        <mxCell id="DDEnpmRq-jySMfK6d3gm-132" value="" style="edgeStyle=orthogonalEdgeStyle;rounded=0;orthogonalLoop=1;jettySize=auto;html=1;dashed=1;endArrow=none;endFill=0;strokeColor=light-dark(#000000,#FFFFFF);" edge="1" parent="1" source="DDEnpmRq-jySMfK6d3gm-133" target="DDEnpmRq-jySMfK6d3gm-131">
          <mxGeometry relative="1" as="geometry" />
        </mxCell>
        <mxCell id="DDEnpmRq-jySMfK6d3gm-133" value="" style="shape=curlyBracket;whiteSpace=wrap;html=1;rounded=1;flipH=0;labelPosition=right;verticalLabelPosition=middle;align=left;verticalAlign=middle;dashed=1;strokeColor=light-dark(#000000,#FFFFFF);" vertex="1" parent="1">
          <mxGeometry x="-740.5" y="3561" width="40" height="240" as="geometry" />
        </mxCell>
        <mxCell id="DDEnpmRq-jySMfK6d3gm-191" value="&lt;span style=&quot;font-size: 16px;&quot;&gt;Update&lt;/span&gt;&lt;div&gt;&lt;span style=&quot;font-size: 16px;&quot;&gt;&lt;font face=&quot;Lucida Console&quot;&gt;t_base&lt;/font&gt;&lt;/span&gt;&lt;/div&gt;" style="shape=parallelogram;perimeter=parallelogramPerimeter;whiteSpace=wrap;html=1;fixedSize=1;fillColor=none;" vertex="1" parent="1">
          <mxGeometry x="-120.5" y="3401" width="240" height="80" as="geometry" />
        </mxCell>
        <mxCell id="DDEnpmRq-jySMfK6d3gm-195" value="" style="edgeStyle=orthogonalEdgeStyle;rounded=0;orthogonalLoop=1;jettySize=auto;html=1;dashed=1;endArrow=none;endFill=0;strokeColor=light-dark(#000000,#FFFFFF);" edge="1" parent="1" source="DDEnpmRq-jySMfK6d3gm-193" target="DDEnpmRq-jySMfK6d3gm-194">
          <mxGeometry relative="1" as="geometry" />
        </mxCell>
        <mxCell id="DDEnpmRq-jySMfK6d3gm-193" value="&lt;h1 style=&quot;margin-top: 0px;&quot;&gt;&lt;font face=&quot;Lucida Console&quot;&gt;t_base&lt;/font&gt;&lt;/h1&gt;&lt;p style=&quot;&quot;&gt;&lt;span style=&quot;font-size: 16px;&quot;&gt;Unlike DAICS, where &lt;font style=&quot;color: light-dark(rgb(255, 102, 102), rgb(255, 102, 102));&quot; face=&quot;Lucida Console&quot;&gt;t_base&lt;/font&gt; is calculated only once (as the threshold model alone assesses concept drift), this solution recalculates &lt;font style=&quot;color: light-dark(rgb(255, 102, 102), rgb(255, 102, 102));&quot; face=&quot;Lucida Console&quot;&gt;t_base&lt;/font&gt; whenever the autoencoder is retrained.&lt;/span&gt;&lt;/p&gt;" style="text;html=1;whiteSpace=wrap;overflow=hidden;rounded=0;verticalAlign=middle;" vertex="1" parent="1">
          <mxGeometry x="240.5" y="3360" width="520" height="160" as="geometry" />
        </mxCell>
        <mxCell id="DDEnpmRq-jySMfK6d3gm-194" value="" style="shape=curlyBracket;whiteSpace=wrap;html=1;rounded=1;flipH=1;labelPosition=right;verticalLabelPosition=middle;align=left;verticalAlign=middle;dashed=1;strokeColor=light-dark(#000000,#FFFFFF);" vertex="1" parent="1">
          <mxGeometry x="160.5" y="3400" width="40" height="80" as="geometry" />
        </mxCell>
        <mxCell id="DDEnpmRq-jySMfK6d3gm-204" value="" style="edgeStyle=orthogonalEdgeStyle;rounded=0;orthogonalLoop=1;jettySize=auto;html=1;strokeColor=light-dark(#000000,#FFFFFF);" edge="1" parent="1" source="DDEnpmRq-jySMfK6d3gm-198" target="DDEnpmRq-jySMfK6d3gm-71">
          <mxGeometry relative="1" as="geometry" />
        </mxCell>
        <mxCell id="DDEnpmRq-jySMfK6d3gm-206" value="&lt;font style=&quot;font-size: 16px;&quot;&gt;YES&lt;/font&gt;" style="edgeLabel;html=1;align=center;verticalAlign=middle;resizable=0;points=[];" vertex="1" connectable="0" parent="DDEnpmRq-jySMfK6d3gm-204">
          <mxGeometry x="0.0304" relative="1" as="geometry">
            <mxPoint as="offset" />
          </mxGeometry>
        </mxCell>
        <mxCell id="DDEnpmRq-jySMfK6d3gm-198" value="&lt;span style=&quot;font-size: 16px;&quot;&gt;&lt;font face=&quot;Lucida Console&quot;&gt;N&lt;/font&gt;&lt;/span&gt;&lt;div&gt;&lt;span style=&quot;font-size: 16px;&quot;&gt;&lt;font face=&quot;Helvetica&quot;&gt;consecutives&lt;/font&gt;&lt;/span&gt;&lt;/div&gt;&lt;div&gt;&lt;span style=&quot;font-size: 16px;&quot;&gt;&lt;font face=&quot;Helvetica&quot;&gt;false positives?&lt;/font&gt;&lt;/span&gt;&lt;/div&gt;" style="rhombus;whiteSpace=wrap;html=1;fillColor=none;" vertex="1" parent="1">
          <mxGeometry x="-401" y="2838" width="240" height="240" as="geometry" />
        </mxCell>
        <mxCell id="DDEnpmRq-jySMfK6d3gm-201" value="" style="edgeStyle=orthogonalEdgeStyle;rounded=0;orthogonalLoop=1;jettySize=auto;html=1;dashed=1;endArrow=none;endFill=0;strokeColor=light-dark(#000000,#FFFFFF);" edge="1" parent="1" source="DDEnpmRq-jySMfK6d3gm-202" target="DDEnpmRq-jySMfK6d3gm-203">
          <mxGeometry relative="1" as="geometry" />
        </mxCell>
        <mxCell id="DDEnpmRq-jySMfK6d3gm-202" value="" style="shape=curlyBracket;whiteSpace=wrap;html=1;rounded=1;labelPosition=left;verticalLabelPosition=middle;align=right;verticalAlign=middle;dashed=1;strokeColor=light-dark(#000000,#FFFFFF);" vertex="1" parent="1">
          <mxGeometry x="-481" y="2838" width="40" height="240" as="geometry" />
        </mxCell>
        <mxCell id="DDEnpmRq-jySMfK6d3gm-203" value="&lt;h1 style=&quot;margin-top: 0px;&quot;&gt;N&lt;/h1&gt;&lt;p style=&quot;&quot;&gt;&lt;span style=&quot;font-size: 16px;&quot;&gt;Unlike other values,&amp;nbsp;&lt;/span&gt;&lt;font style=&quot;font-size: 16px; color: light-dark(rgb(0, 0, 0), rgb(255, 102, 102));&quot; face=&quot;Lucida Console&quot;&gt;N&lt;/font&gt;&lt;span style=&quot;font-size: 16px;&quot;&gt;&amp;nbsp;is hardcoded. Dynamically determining&amp;nbsp;&lt;/span&gt;&lt;font style=&quot;font-size: 16px; color: light-dark(rgb(0, 0, 0), rgb(255, 102, 102));&quot; face=&quot;Lucida Console&quot;&gt;N&lt;/font&gt;&lt;span style=&quot;font-size: 16px;&quot;&gt;&amp;nbsp;could introduce too many dynamic variables into the system, significantly increasing its complexity.&lt;/span&gt;&lt;/p&gt;" style="text;html=1;align=left;verticalAlign=middle;whiteSpace=wrap;rounded=0;" vertex="1" parent="1">
          <mxGeometry x="-1041" y="2878" width="520" height="160" as="geometry" />
        </mxCell>
      </root>
    </mxGraphModel>
  </diagram>
</mxfile>
